<mxfile host="app.diagrams.net" agent="Mozilla/5.0 (Macintosh; Intel Mac OS X 10_15_7) AppleWebKit/537.36 (KHTML, like Gecko) Chrome/128.0.0.0 Safari/537.36" version="24.7.12">
  <diagram name="Page-1" id="9kv5jZxlI-P6tB1nFdzt">
    <mxGraphModel dx="1672" dy="1132" grid="1" gridSize="10" guides="1" tooltips="1" connect="1" arrows="1" fold="1" page="1" pageScale="1" pageWidth="850" pageHeight="1100" math="0" shadow="0">
      <root>
        <mxCell id="0" />
        <mxCell id="1" parent="0" />
        <mxCell id="uVeZKtp4HrXrIB4ox1Ez-3" value="GitHub crain-mono-web" style="shape=umlLifeline;perimeter=lifelinePerimeter;whiteSpace=wrap;html=1;container=1;dropTarget=0;collapsible=0;recursiveResize=0;outlineConnect=0;portConstraint=eastwest;newEdgeStyle={&quot;curved&quot;:0,&quot;rounded&quot;:0};" vertex="1" parent="1">
          <mxGeometry x="9" y="270" width="100" height="760" as="geometry" />
        </mxCell>
        <mxCell id="uVeZKtp4HrXrIB4ox1Ez-4" value="PRs merge to develop branch develop to dev and sandbox evn" style="endArrow=block;endFill=1;html=1;edgeStyle=orthogonalEdgeStyle;align=left;verticalAlign=top;rounded=0;" edge="1" parent="1" source="uVeZKtp4HrXrIB4ox1Ez-3" target="uVeZKtp4HrXrIB4ox1Ez-9">
          <mxGeometry x="-0.7243" relative="1" as="geometry">
            <mxPoint x="59" y="430" as="sourcePoint" />
            <mxPoint x="429" y="430" as="targetPoint" />
            <Array as="points">
              <mxPoint x="159" y="500" />
              <mxPoint x="159" y="480" />
            </Array>
            <mxPoint as="offset" />
          </mxGeometry>
        </mxCell>
        <mxCell id="uVeZKtp4HrXrIB4ox1Ez-5" value="1" style="edgeLabel;resizable=0;html=1;align=left;verticalAlign=bottom;" connectable="0" vertex="1" parent="uVeZKtp4HrXrIB4ox1Ez-4">
          <mxGeometry x="-1" relative="1" as="geometry" />
        </mxCell>
        <mxCell id="uVeZKtp4HrXrIB4ox1Ez-6" value="when PRs merge to develop branch github workflow trigger merge to paywall-api-stage branch" style="endArrow=block;endFill=1;html=1;edgeStyle=orthogonalEdgeStyle;align=left;verticalAlign=top;rounded=0;" edge="1" parent="1" source="uVeZKtp4HrXrIB4ox1Ez-3" target="uVeZKtp4HrXrIB4ox1Ez-10">
          <mxGeometry x="-1" relative="1" as="geometry">
            <mxPoint x="59" y="740" as="sourcePoint" />
            <mxPoint x="470" y="740" as="targetPoint" />
            <Array as="points">
              <mxPoint x="220" y="590" />
              <mxPoint x="220" y="590" />
            </Array>
            <mxPoint as="offset" />
          </mxGeometry>
        </mxCell>
        <mxCell id="uVeZKtp4HrXrIB4ox1Ez-7" value="2" style="edgeLabel;resizable=0;html=1;align=left;verticalAlign=bottom;" connectable="0" vertex="1" parent="uVeZKtp4HrXrIB4ox1Ez-6">
          <mxGeometry x="-1" relative="1" as="geometry" />
        </mxCell>
        <mxCell id="uVeZKtp4HrXrIB4ox1Ez-9" value="&lt;font style=&quot;font-size: 12px;&quot;&gt;&lt;a style=&quot;text-align: left; border-width: 0px; border-style: solid; border-color: hsla(var(--ds-gray-200-value),1); box-sizing: border-box; --tw-border-spacing-x: 0; --tw-border-spacing-y: 0; --tw-translate-x: 0; --tw-translate-y: 0; --tw-rotate: 0; --tw-skew-x: 0; --tw-skew-y: 0; --tw-scale-x: 1; --tw-scale-y: 1; --tw-pan-x: ; --tw-pan-y: ; --tw-pinch-zoom: ; --tw-scroll-snap-strictness: proximity; --tw-gradient-from-position: ; --tw-gradient-via-position: ; --tw-gradient-to-position: ; --tw-ordinal: ; --tw-slashed-zero: ; --tw-numeric-figure: ; --tw-numeric-spacing: ; --tw-numeric-fraction: ; --tw-ring-inset: ; --tw-ring-offset-width: 0px; --tw-ring-offset-color: #fff; --tw-ring-color: rgba(147,197,253,.5); --tw-ring-offset-shadow: 0 0 #0000; --tw-ring-shadow: 0 0 #0000; --tw-shadow: 0 0 #0000; --tw-shadow-colored: 0 0 #0000; --tw-blur: ; --tw-brightness: ; --tw-contrast: ; --tw-grayscale: ; --tw-hue-rotate: ; --tw-invert: ; --tw-saturate: ; --tw-sepia: ; --tw-drop-shadow: ; --tw-backdrop-blur: ; --tw-backdrop-brightness: ; --tw-backdrop-contrast: ; --tw-backdrop-grayscale: ; --tw-backdrop-hue-rotate: ; --tw-backdrop-invert: ; --tw-backdrop-opacity: ; --tw-backdrop-saturate: ; --tw-backdrop-sepia: ; -webkit-tap-highlight-color: rgba(0, 0, 0, 0); text-decoration-line: none; cursor: pointer; outline: none; align-items: flex-start; word-break: break-word; font-family: geistSansFont, &amp;quot;Apple Color Emoji&amp;quot;, &amp;quot;Segoe UI Emoji&amp;quot;, &amp;quot;Segoe UI Symbol&amp;quot;, arial; min-width: 0px;&quot; data-prefetch=&quot;true&quot; class=&quot;link_link__hbWKh alias-domain_aliasLink__RQP89&quot; data-zone=&quot;null&quot; target=&quot;_blank&quot; rel=&quot;noopener&quot; href=&quot;https://paywalls-dev.autonews.com/&quot;&gt;paywalls-dev.autonews.com&lt;/a&gt;&lt;span style=&quot;text-align: left; text-wrap: nowrap; background-color: rgb(255, 255, 255);&quot;&gt;,&lt;/span&gt;&lt;/font&gt;&lt;div style=&quot;text-align: left; text-wrap: nowrap;&quot;&gt;&lt;font style=&quot;font-size: 12px;&quot;&gt;&lt;a style=&quot;border-width: 0px; border-style: solid; border-color: hsla(var(--ds-gray-200-value),1); box-sizing: border-box; --tw-border-spacing-x: 0; --tw-border-spacing-y: 0; --tw-translate-x: 0; --tw-translate-y: 0; --tw-rotate: 0; --tw-skew-x: 0; --tw-skew-y: 0; --tw-scale-x: 1; --tw-scale-y: 1; --tw-pan-x: ; --tw-pan-y: ; --tw-pinch-zoom: ; --tw-scroll-snap-strictness: proximity; --tw-gradient-from-position: ; --tw-gradient-via-position: ; --tw-gradient-to-position: ; --tw-ordinal: ; --tw-slashed-zero: ; --tw-numeric-figure: ; --tw-numeric-spacing: ; --tw-numeric-fraction: ; --tw-ring-inset: ; --tw-ring-offset-width: 0px; --tw-ring-offset-color: #fff; --tw-ring-color: rgba(147,197,253,.5); --tw-ring-offset-shadow: 0 0 #0000; --tw-ring-shadow: 0 0 #0000; --tw-shadow: 0 0 #0000; --tw-shadow-colored: 0 0 #0000; --tw-blur: ; --tw-brightness: ; --tw-contrast: ; --tw-grayscale: ; --tw-hue-rotate: ; --tw-invert: ; --tw-saturate: ; --tw-sepia: ; --tw-drop-shadow: ; --tw-backdrop-blur: ; --tw-backdrop-brightness: ; --tw-backdrop-contrast: ; --tw-backdrop-grayscale: ; --tw-backdrop-hue-rotate: ; --tw-backdrop-invert: ; --tw-backdrop-opacity: ; --tw-backdrop-saturate: ; --tw-backdrop-sepia: ; -webkit-tap-highlight-color: rgba(0, 0, 0, 0); text-decoration-line: none; cursor: pointer; outline: none; align-items: flex-start; word-break: break-word; font-family: geistSansFont, &amp;quot;Apple Color Emoji&amp;quot;, &amp;quot;Segoe UI Emoji&amp;quot;, &amp;quot;Segoe UI Symbol&amp;quot;, arial; text-wrap: wrap; min-width: 0px;&quot; data-prefetch=&quot;true&quot; class=&quot;link_link__hbWKh alias-domain_aliasLink__RQP89&quot; data-zone=&quot;null&quot; target=&quot;_blank&quot; rel=&quot;noopener&quot; href=&quot;https://paywall-auth.arcxp-dev.autonews.com/&quot;&gt;paywall-auth.arcxp-dev.autonews.com&lt;/a&gt;,&lt;br&gt;&lt;/font&gt;&lt;/div&gt;&lt;div style=&quot;text-align: left; text-wrap: nowrap;&quot;&gt;&lt;a style=&quot;border-width: 0px; border-style: solid; border-color: hsla(var(--ds-gray-200-value),1); box-sizing: border-box; --tw-border-spacing-x: 0; --tw-border-spacing-y: 0; --tw-translate-x: 0; --tw-translate-y: 0; --tw-rotate: 0; --tw-skew-x: 0; --tw-skew-y: 0; --tw-scale-x: 1; --tw-scale-y: 1; --tw-pan-x: ; --tw-pan-y: ; --tw-pinch-zoom: ; --tw-scroll-snap-strictness: proximity; --tw-gradient-from-position: ; --tw-gradient-via-position: ; --tw-gradient-to-position: ; --tw-ordinal: ; --tw-slashed-zero: ; --tw-numeric-figure: ; --tw-numeric-spacing: ; --tw-numeric-fraction: ; --tw-ring-inset: ; --tw-ring-offset-width: 0px; --tw-ring-offset-color: #fff; --tw-ring-color: rgba(147,197,253,.5); --tw-ring-offset-shadow: 0 0 #0000; --tw-ring-shadow: 0 0 #0000; --tw-shadow: 0 0 #0000; --tw-shadow-colored: 0 0 #0000; --tw-blur: ; --tw-brightness: ; --tw-contrast: ; --tw-grayscale: ; --tw-hue-rotate: ; --tw-invert: ; --tw-saturate: ; --tw-sepia: ; --tw-drop-shadow: ; --tw-backdrop-blur: ; --tw-backdrop-brightness: ; --tw-backdrop-contrast: ; --tw-backdrop-grayscale: ; --tw-backdrop-hue-rotate: ; --tw-backdrop-invert: ; --tw-backdrop-opacity: ; --tw-backdrop-saturate: ; --tw-backdrop-sepia: ; -webkit-tap-highlight-color: rgba(0, 0, 0, 0); text-decoration-line: none; cursor: pointer; outline: none; align-items: flex-start; word-break: break-word; font-family: geistSansFont, &amp;quot;Apple Color Emoji&amp;quot;, &amp;quot;Segoe UI Emoji&amp;quot;, &amp;quot;Segoe UI Symbol&amp;quot;, arial; text-wrap: wrap; min-width: 0px;&quot; data-prefetch=&quot;true&quot; class=&quot;link_link__hbWKh alias-domain_aliasLink__RQP89&quot; data-zone=&quot;null&quot; target=&quot;_blank&quot; rel=&quot;noopener&quot; href=&quot;https://paywall-auth.arcxp-dev.autonews.com/&quot;&gt;&lt;font style=&quot;font-size: 12px;&quot;&gt;paywall-auth.arcxp-sandbox.autonews.com&lt;/font&gt;&lt;/a&gt;&lt;/div&gt;" style="shape=umlLifeline;perimeter=lifelinePerimeter;whiteSpace=wrap;html=1;container=1;dropTarget=0;collapsible=0;recursiveResize=0;outlineConnect=0;portConstraint=eastwest;newEdgeStyle={&quot;curved&quot;:0,&quot;rounded&quot;:0};" vertex="1" parent="1">
          <mxGeometry x="209" y="260" width="450" height="780" as="geometry" />
        </mxCell>
        <mxCell id="uVeZKtp4HrXrIB4ox1Ez-10" value="&lt;font style=&quot;font-size: 12px;&quot;&gt;&lt;a href=&quot;https://paywalls-dev.autonews.com/&quot; rel=&quot;noopener&quot; target=&quot;_blank&quot; data-zone=&quot;null&quot; class=&quot;link_link__hbWKh alias-domain_aliasLink__RQP89&quot; data-prefetch=&quot;true&quot; style=&quot;text-align: left; border-width: 0px; border-style: solid; border-color: hsla(var(--ds-gray-200-value),1); box-sizing: border-box; --tw-border-spacing-x: 0; --tw-border-spacing-y: 0; --tw-translate-x: 0; --tw-translate-y: 0; --tw-rotate: 0; --tw-skew-x: 0; --tw-skew-y: 0; --tw-scale-x: 1; --tw-scale-y: 1; --tw-pan-x: ; --tw-pan-y: ; --tw-pinch-zoom: ; --tw-scroll-snap-strictness: proximity; --tw-gradient-from-position: ; --tw-gradient-via-position: ; --tw-gradient-to-position: ; --tw-ordinal: ; --tw-slashed-zero: ; --tw-numeric-figure: ; --tw-numeric-spacing: ; --tw-numeric-fraction: ; --tw-ring-inset: ; --tw-ring-offset-width: 0px; --tw-ring-offset-color: #fff; --tw-ring-color: rgba(147,197,253,.5); --tw-ring-offset-shadow: 0 0 #0000; --tw-ring-shadow: 0 0 #0000; --tw-shadow: 0 0 #0000; --tw-shadow-colored: 0 0 #0000; --tw-blur: ; --tw-brightness: ; --tw-contrast: ; --tw-grayscale: ; --tw-hue-rotate: ; --tw-invert: ; --tw-saturate: ; --tw-sepia: ; --tw-drop-shadow: ; --tw-backdrop-blur: ; --tw-backdrop-brightness: ; --tw-backdrop-contrast: ; --tw-backdrop-grayscale: ; --tw-backdrop-hue-rotate: ; --tw-backdrop-invert: ; --tw-backdrop-opacity: ; --tw-backdrop-saturate: ; --tw-backdrop-sepia: ; -webkit-tap-highlight-color: rgba(0, 0, 0, 0); text-decoration-line: none; cursor: pointer; outline: none; align-items: flex-start; word-break: break-word; font-family: geistSansFont, &amp;quot;Apple Color Emoji&amp;quot;, &amp;quot;Segoe UI Emoji&amp;quot;, &amp;quot;Segoe UI Symbol&amp;quot;, arial; min-width: 0px;&quot;&gt;paywalls-stage.autonews.com&lt;/a&gt;&lt;span style=&quot;text-align: left; text-wrap: nowrap; background-color: rgb(255, 255, 255);&quot;&gt;,&lt;/span&gt;&lt;/font&gt;&lt;div style=&quot;text-align: left; text-wrap: nowrap;&quot;&gt;&lt;font style=&quot;font-size: 12px;&quot;&gt;&lt;a href=&quot;https://paywall-auth.arcxp-dev.autonews.com/&quot; rel=&quot;noopener&quot; target=&quot;_blank&quot; data-zone=&quot;null&quot; class=&quot;link_link__hbWKh alias-domain_aliasLink__RQP89&quot; data-prefetch=&quot;true&quot; style=&quot;border-width: 0px; border-style: solid; border-color: hsla(var(--ds-gray-200-value),1); box-sizing: border-box; --tw-border-spacing-x: 0; --tw-border-spacing-y: 0; --tw-translate-x: 0; --tw-translate-y: 0; --tw-rotate: 0; --tw-skew-x: 0; --tw-skew-y: 0; --tw-scale-x: 1; --tw-scale-y: 1; --tw-pan-x: ; --tw-pan-y: ; --tw-pinch-zoom: ; --tw-scroll-snap-strictness: proximity; --tw-gradient-from-position: ; --tw-gradient-via-position: ; --tw-gradient-to-position: ; --tw-ordinal: ; --tw-slashed-zero: ; --tw-numeric-figure: ; --tw-numeric-spacing: ; --tw-numeric-fraction: ; --tw-ring-inset: ; --tw-ring-offset-width: 0px; --tw-ring-offset-color: #fff; --tw-ring-color: rgba(147,197,253,.5); --tw-ring-offset-shadow: 0 0 #0000; --tw-ring-shadow: 0 0 #0000; --tw-shadow: 0 0 #0000; --tw-shadow-colored: 0 0 #0000; --tw-blur: ; --tw-brightness: ; --tw-contrast: ; --tw-grayscale: ; --tw-hue-rotate: ; --tw-invert: ; --tw-saturate: ; --tw-sepia: ; --tw-drop-shadow: ; --tw-backdrop-blur: ; --tw-backdrop-brightness: ; --tw-backdrop-contrast: ; --tw-backdrop-grayscale: ; --tw-backdrop-hue-rotate: ; --tw-backdrop-invert: ; --tw-backdrop-opacity: ; --tw-backdrop-saturate: ; --tw-backdrop-sepia: ; -webkit-tap-highlight-color: rgba(0, 0, 0, 0); text-decoration-line: none; cursor: pointer; outline: none; align-items: flex-start; word-break: break-word; font-family: geistSansFont, &amp;quot;Apple Color Emoji&amp;quot;, &amp;quot;Segoe UI Emoji&amp;quot;, &amp;quot;Segoe UI Symbol&amp;quot;, arial; text-wrap: wrap; min-width: 0px;&quot;&gt;paywall-auth.arcxp-stage.autonews.com&lt;/a&gt;&lt;/font&gt;&lt;/div&gt;" style="shape=umlLifeline;perimeter=lifelinePerimeter;whiteSpace=wrap;html=1;container=1;dropTarget=0;collapsible=0;recursiveResize=0;outlineConnect=0;portConstraint=eastwest;newEdgeStyle={&quot;curved&quot;:0,&quot;rounded&quot;:0};" vertex="1" parent="1">
          <mxGeometry x="690" y="260" width="450" height="810" as="geometry" />
        </mxCell>
        <mxCell id="uVeZKtp4HrXrIB4ox1Ez-11" value="Test" style="shape=umlLifeline;perimeter=lifelinePerimeter;whiteSpace=wrap;html=1;container=1;dropTarget=0;collapsible=0;recursiveResize=0;outlineConnect=0;portConstraint=eastwest;newEdgeStyle={&quot;curved&quot;:0,&quot;rounded&quot;:0};" vertex="1" parent="1">
          <mxGeometry x="1250" y="250" width="100" height="780" as="geometry" />
        </mxCell>
        <mxCell id="uVeZKtp4HrXrIB4ox1Ez-12" value="test" style="endArrow=block;endFill=1;html=1;edgeStyle=orthogonalEdgeStyle;align=left;verticalAlign=top;rounded=0;entryX=0.5;entryY=0.513;entryDx=0;entryDy=0;entryPerimeter=0;" edge="1" parent="1" source="uVeZKtp4HrXrIB4ox1Ez-9" target="uVeZKtp4HrXrIB4ox1Ez-11">
          <mxGeometry x="-1" relative="1" as="geometry">
            <mxPoint x="440" y="370" as="sourcePoint" />
            <mxPoint x="590" y="370" as="targetPoint" />
          </mxGeometry>
        </mxCell>
        <mxCell id="uVeZKtp4HrXrIB4ox1Ez-13" value="1" style="edgeLabel;resizable=0;html=1;align=left;verticalAlign=bottom;" connectable="0" vertex="1" parent="uVeZKtp4HrXrIB4ox1Ez-12">
          <mxGeometry x="-1" relative="1" as="geometry" />
        </mxCell>
        <mxCell id="uVeZKtp4HrXrIB4ox1Ez-14" value="3" style="edgeLabel;html=1;align=center;verticalAlign=middle;resizable=0;points=[];" vertex="1" connectable="0" parent="uVeZKtp4HrXrIB4ox1Ez-12">
          <mxGeometry x="-0.9931" y="11" relative="1" as="geometry">
            <mxPoint as="offset" />
          </mxGeometry>
        </mxCell>
        <mxCell id="uVeZKtp4HrXrIB4ox1Ez-15" value="test" style="endArrow=block;endFill=1;html=1;edgeStyle=orthogonalEdgeStyle;align=left;verticalAlign=top;rounded=0;" edge="1" parent="1" source="uVeZKtp4HrXrIB4ox1Ez-10" target="uVeZKtp4HrXrIB4ox1Ez-11">
          <mxGeometry x="-1" relative="1" as="geometry">
            <mxPoint x="920" y="820" as="sourcePoint" />
            <mxPoint x="1800" y="1090" as="targetPoint" />
            <Array as="points">
              <mxPoint x="1195" y="760" />
              <mxPoint x="1195" y="710" />
            </Array>
          </mxGeometry>
        </mxCell>
        <mxCell id="uVeZKtp4HrXrIB4ox1Ez-16" value="1" style="edgeLabel;resizable=0;html=1;align=left;verticalAlign=bottom;" connectable="0" vertex="1" parent="uVeZKtp4HrXrIB4ox1Ez-15">
          <mxGeometry x="-1" relative="1" as="geometry" />
        </mxCell>
        <mxCell id="uVeZKtp4HrXrIB4ox1Ez-17" value="3" style="edgeLabel;html=1;align=center;verticalAlign=middle;resizable=0;points=[];" vertex="1" connectable="0" parent="uVeZKtp4HrXrIB4ox1Ez-15">
          <mxGeometry x="-0.9931" y="11" relative="1" as="geometry">
            <mxPoint as="offset" />
          </mxGeometry>
        </mxCell>
        <mxCell id="uVeZKtp4HrXrIB4ox1Ez-18" value="4" style="edgeLabel;html=1;align=center;verticalAlign=middle;resizable=0;points=[];" vertex="1" connectable="0" parent="uVeZKtp4HrXrIB4ox1Ez-15">
          <mxGeometry x="-0.9826" y="12" relative="1" as="geometry">
            <mxPoint as="offset" />
          </mxGeometry>
        </mxCell>
        <mxCell id="uVeZKtp4HrXrIB4ox1Ez-19" value="Pass test create PR comparing with main" style="endArrow=block;endFill=1;html=1;edgeStyle=orthogonalEdgeStyle;align=left;verticalAlign=top;rounded=0;exitX=0.6;exitY=0.923;exitDx=0;exitDy=0;exitPerimeter=0;" edge="1" parent="1" source="uVeZKtp4HrXrIB4ox1Ez-11" target="uVeZKtp4HrXrIB4ox1Ez-3">
          <mxGeometry x="-0.3084" y="10" relative="1" as="geometry">
            <mxPoint x="470" y="630" as="sourcePoint" />
            <mxPoint x="630" y="630" as="targetPoint" />
            <Array as="points">
              <mxPoint x="330" y="970" />
              <mxPoint x="330" y="970" />
            </Array>
            <mxPoint x="1" as="offset" />
          </mxGeometry>
        </mxCell>
        <mxCell id="uVeZKtp4HrXrIB4ox1Ez-20" value="5" style="edgeLabel;resizable=0;html=1;align=left;verticalAlign=bottom;" connectable="0" vertex="1" parent="uVeZKtp4HrXrIB4ox1Ez-19">
          <mxGeometry x="-1" relative="1" as="geometry" />
        </mxCell>
        <mxCell id="uVeZKtp4HrXrIB4ox1Ez-21" value="&lt;h4 style=&quot;border-width: 0px; border-style: solid; border-color: hsla(var(--ds-gray-200-value),1); margin: 0px; --text-size: 1rem; --text-weight: 500; --text-line-height: 1.5rem; font-family: geistSansFont, &amp;quot;Apple Color Emoji&amp;quot;, &amp;quot;Segoe UI Emoji&amp;quot;, &amp;quot;Segoe UI Symbol&amp;quot;, arial; color: rgb(23, 23, 23); font-weight: var(--text-weight); line-height: var(--text-line-height); text-align: start; --text-letter-spacing: initial; box-sizing: border-box; --tw-border-spacing-x: 0; --tw-border-spacing-y: 0; --tw-translate-x: 0; --tw-translate-y: 0; --tw-rotate: 0; --tw-skew-x: 0; --tw-skew-y: 0; --tw-scale-x: 1; --tw-scale-y: 1; --tw-pan-x: ; --tw-pan-y: ; --tw-pinch-zoom: ; --tw-scroll-snap-strictness: proximity; --tw-gradient-from-position: ; --tw-gradient-via-position: ; --tw-gradient-to-position: ; --tw-ordinal: ; --tw-slashed-zero: ; --tw-numeric-figure: ; --tw-numeric-spacing: ; --tw-numeric-fraction: ; --tw-ring-inset: ; --tw-ring-offset-width: 0px; --tw-ring-offset-color: #fff; --tw-ring-color: rgba(147,197,253,.5); --tw-ring-offset-shadow: 0 0 #0000; --tw-ring-shadow: 0 0 #0000; --tw-shadow: 0 0 #0000; --tw-shadow-colored: 0 0 #0000; --tw-blur: ; --tw-brightness: ; --tw-contrast: ; --tw-grayscale: ; --tw-hue-rotate: ; --tw-invert: ; --tw-saturate: ; --tw-sepia: ; --tw-drop-shadow: ; --tw-backdrop-blur: ; --tw-backdrop-brightness: ; --tw-backdrop-contrast: ; --tw-backdrop-grayscale: ; --tw-backdrop-hue-rotate: ; --tw-backdrop-invert: ; --tw-backdrop-opacity: ; --tw-backdrop-saturate: ; --tw-backdrop-sepia: ; background-color: rgb(255, 255, 255); --text-color: var(--ds-gray-1000); overflow-wrap: anywhere; position: relative;&quot; data-version=&quot;v1&quot; class=&quot;text_wrapper__i87JK&quot;&gt;&lt;div style=&quot;border-width: 0px; border-style: solid; border-color: hsla(var(--ds-gray-200-value),1); box-sizing: border-box; --tw-border-spacing-x: 0; --tw-border-spacing-y: 0; --tw-translate-x: 0; --tw-translate-y: 0; --tw-rotate: 0; --tw-skew-x: 0; --tw-skew-y: 0; --tw-scale-x: 1; --tw-scale-y: 1; --tw-pan-x: ; --tw-pan-y: ; --tw-pinch-zoom: ; --tw-scroll-snap-strictness: proximity; --tw-gradient-from-position: ; --tw-gradient-via-position: ; --tw-gradient-to-position: ; --tw-ordinal: ; --tw-slashed-zero: ; --tw-numeric-figure: ; --tw-numeric-spacing: ; --tw-numeric-fraction: ; --tw-ring-inset: ; --tw-ring-offset-width: 0px; --tw-ring-offset-color: #fff; --tw-ring-color: rgba(147,197,253,.5); --tw-ring-offset-shadow: 0 0 #0000; --tw-ring-shadow: 0 0 #0000; --tw-shadow: 0 0 #0000; --tw-shadow-colored: 0 0 #0000; --tw-blur: ; --tw-brightness: ; --tw-contrast: ; --tw-grayscale: ; --tw-hue-rotate: ; --tw-invert: ; --tw-saturate: ; --tw-sepia: ; --tw-drop-shadow: ; --tw-backdrop-blur: ; --tw-backdrop-brightness: ; --tw-backdrop-contrast: ; --tw-backdrop-grayscale: ; --tw-backdrop-hue-rotate: ; --tw-backdrop-invert: ; --tw-backdrop-opacity: ; --tw-backdrop-saturate: ; --tw-backdrop-sepia: ; visibility: visible;&quot; class=&quot;jsx-7f6b6172870dc978&quot;&gt;&lt;a style=&quot;border-width: 0px; border-style: solid; border-color: hsla(var(--ds-gray-200-value),1); box-sizing: border-box; --tw-border-spacing-x: 0; --tw-border-spacing-y: 0; --tw-translate-x: 0; --tw-translate-y: 0; --tw-rotate: 0; --tw-skew-x: 0; --tw-skew-y: 0; --tw-scale-x: 1; --tw-scale-y: 1; --tw-pan-x: ; --tw-pan-y: ; --tw-pinch-zoom: ; --tw-scroll-snap-strictness: proximity; --tw-gradient-from-position: ; --tw-gradient-via-position: ; --tw-gradient-to-position: ; --tw-ordinal: ; --tw-slashed-zero: ; --tw-numeric-figure: ; --tw-numeric-spacing: ; --tw-numeric-fraction: ; --tw-ring-inset: ; --tw-ring-offset-width: 0px; --tw-ring-offset-color: #fff; --tw-ring-color: rgba(147,197,253,.5); --tw-ring-offset-shadow: 0 0 #0000; --tw-ring-shadow: 0 0 #0000; --tw-shadow: 0 0 #0000; --tw-shadow-colored: 0 0 #0000; --tw-blur: ; --tw-brightness: ; --tw-contrast: ; --tw-grayscale: ; --tw-hue-rotate: ; --tw-invert: ; --tw-saturate: ; --tw-sepia: ; --tw-drop-shadow: ; --tw-backdrop-blur: ; --tw-backdrop-brightness: ; --tw-backdrop-contrast: ; --tw-backdrop-grayscale: ; --tw-backdrop-hue-rotate: ; --tw-backdrop-invert: ; --tw-backdrop-opacity: ; --tw-backdrop-saturate: ; --tw-backdrop-sepia: ; -webkit-tap-highlight-color: rgba(0, 0, 0, 0); text-decoration-line: none; cursor: pointer; outline: none; align-items: flex-start; word-break: break-word; min-width: 0px;&quot; data-prefetch=&quot;true&quot; class=&quot;link_link__hbWKh alias-domain_aliasLink__RQP89&quot; data-zone=&quot;null&quot; target=&quot;_blank&quot; rel=&quot;noopener&quot; href=&quot;https://paywalls.vercel.app/&quot;&gt;&lt;font style=&quot;font-size: 12px;&quot;&gt;paywalls.vercel.app&lt;/font&gt;&lt;/a&gt;&lt;/div&gt;&lt;/h4&gt;&lt;div style=&quot;text-align: left; text-wrap: nowrap;&quot;&gt;&lt;font style=&quot;font-size: 12px;&quot;&gt;&lt;a style=&quot;border-width: 0px; border-style: solid; border-color: hsla(var(--ds-gray-200-value),1); box-sizing: border-box; --tw-border-spacing-x: 0; --tw-border-spacing-y: 0; --tw-translate-x: 0; --tw-translate-y: 0; --tw-rotate: 0; --tw-skew-x: 0; --tw-skew-y: 0; --tw-scale-x: 1; --tw-scale-y: 1; --tw-pan-x: ; --tw-pan-y: ; --tw-pinch-zoom: ; --tw-scroll-snap-strictness: proximity; --tw-gradient-from-position: ; --tw-gradient-via-position: ; --tw-gradient-to-position: ; --tw-ordinal: ; --tw-slashed-zero: ; --tw-numeric-figure: ; --tw-numeric-spacing: ; --tw-numeric-fraction: ; --tw-ring-inset: ; --tw-ring-offset-width: 0px; --tw-ring-offset-color: #fff; --tw-ring-color: rgba(147,197,253,.5); --tw-ring-offset-shadow: 0 0 #0000; --tw-ring-shadow: 0 0 #0000; --tw-shadow: 0 0 #0000; --tw-shadow-colored: 0 0 #0000; --tw-blur: ; --tw-brightness: ; --tw-contrast: ; --tw-grayscale: ; --tw-hue-rotate: ; --tw-invert: ; --tw-saturate: ; --tw-sepia: ; --tw-drop-shadow: ; --tw-backdrop-blur: ; --tw-backdrop-brightness: ; --tw-backdrop-contrast: ; --tw-backdrop-grayscale: ; --tw-backdrop-hue-rotate: ; --tw-backdrop-invert: ; --tw-backdrop-opacity: ; --tw-backdrop-saturate: ; --tw-backdrop-sepia: ; -webkit-tap-highlight-color: rgba(0, 0, 0, 0); text-decoration-line: none; cursor: pointer; outline: none; align-items: flex-start; word-break: break-word; font-family: geistSansFont, &amp;quot;Apple Color Emoji&amp;quot;, &amp;quot;Segoe UI Emoji&amp;quot;, &amp;quot;Segoe UI Symbol&amp;quot;, arial; text-wrap: wrap; min-width: 0px;&quot; data-prefetch=&quot;true&quot; class=&quot;link_link__hbWKh alias-domain_aliasLink__RQP89&quot; data-zone=&quot;null&quot; target=&quot;_blank&quot; rel=&quot;noopener&quot; href=&quot;https://paywall-auth.arcxp-dev.autonews.com/&quot;&gt;paywall-auth.arcxp-prod.autonews.com&lt;/a&gt;&lt;/font&gt;&lt;/div&gt;" style="shape=umlLifeline;perimeter=lifelinePerimeter;whiteSpace=wrap;html=1;container=1;dropTarget=0;collapsible=0;recursiveResize=0;outlineConnect=0;portConstraint=eastwest;newEdgeStyle={&quot;curved&quot;:0,&quot;rounded&quot;:0};" vertex="1" parent="1">
          <mxGeometry x="1390" y="250" width="450" height="820" as="geometry" />
        </mxCell>
        <mxCell id="uVeZKtp4HrXrIB4ox1Ez-22" value="merge PR develop to production domain" style="endArrow=block;endFill=1;html=1;edgeStyle=orthogonalEdgeStyle;align=left;verticalAlign=top;rounded=0;" edge="1" parent="1" target="uVeZKtp4HrXrIB4ox1Ez-21">
          <mxGeometry x="-0.0087" y="-9" relative="1" as="geometry">
            <mxPoint x="60" y="1020" as="sourcePoint" />
            <mxPoint x="1650" y="1040" as="targetPoint" />
            <Array as="points">
              <mxPoint x="60" y="1021" />
            </Array>
            <mxPoint as="offset" />
          </mxGeometry>
        </mxCell>
        <mxCell id="uVeZKtp4HrXrIB4ox1Ez-23" value="6" style="edgeLabel;resizable=0;html=1;align=left;verticalAlign=bottom;" connectable="0" vertex="1" parent="uVeZKtp4HrXrIB4ox1Ez-22">
          <mxGeometry x="-1" relative="1" as="geometry" />
        </mxCell>
      </root>
    </mxGraphModel>
  </diagram>
</mxfile>
